# xmcd
# 
# Track frame offsets:
#     150
#     17658
#     34598
#     49842
#     67492
#     80468
#     92426
#     104971
#     119617
#     138484
#     170687
# 
# Disc length: 4488
# 
# Revision: 2
# Processed by: cddbd v1.5.2PL0 Copyright (c) Steve Scherf et al.
# Submitted via: BonkEnc v1.0.8
# 
DISCID=9f11860b
DTITLE=Rodney Carrington - El Niño Loco
DYEAR=2009
DGENRE=Country
TTITLE0=El Niño Loco
TTITLE1=Drink More Beer
TTITLE2=If I'm the Only One
TTITLE3=Wish She Would Have Left Quicker
TTITLE4=White Shirts and Rain
TTITLE5=Best You'll Do Tonight
TTITLE6=Bowling Trophy Wife
TTITLE7=Do You All
TTITLE8=Don't Tell My Wife
TTITLE9=Funny Man
TTITLE10=If I'm the Only One - VIDEO
EXTD=
EXTT0=
EXTT1=
EXTT2=
EXTT3=
EXTT4=
EXTT5=
EXTT6=
EXTT7=
EXTT8=
EXTT9=
EXTT10=
PLAYORDER=
